<?xml version="1.0" standalone="no"?>
<!DOCTYPE svg PUBLIC "-//W3C//DTD SVG 20010904//EN" "http://www.w3.org/TR/2001/REC-SVG-20010904/DTD/svg10.dtd">
<svg version="1.0" xmlns="http://www.w3.org/2000/svg" width="308.000000pt" height="335.000000pt" viewBox="0 0 308.000000 335.000000" preserveAspectRatio="xMidYMid meet">

  <g transform="translate(0.000000,335.000000) scale(0.100000,-0.100000)" fill="#000000" stroke="none">
    <path d="M1305 2083 c-60 -17 -170 -78 -238 -133 -70 -56 -127 -116 -127 -133
0 -22 36 3 110 76 92 90 154 126 262 152 117 27 212 15 278 -37 32 -26 39 -48
14 -48 -26 0 -203 -79 -248 -110 -52 -35 -205 -184 -239 -231 -51 -71 -80
-149 -85 -230 -5 -93 13 -139 71 -177 36 -24 51 -27 121 -27 71 0 89 4 149 34
135 65 284 240 329 384 28 91 31 222 6 284 -12 28 -14 44 -7 49 25 15 209 -13
411 -63 l148 -36 -43 -26 c-79 -47 -152 -105 -232 -186 -79 -79 -238 -278
-230 -287 2 -2 -11 -2 -30 0 -68 8 -165 -49 -165 -97 0 -30 16 -26 36 9 21 34
74 63 109 58 25 -3 25 -3 -20 -72 -155 -235 -304 -380 -451 -438 -104 -42
-253 -42 -346 0 -81 36 -144 127 -118 171 8 13 9 13 10 -5 0 -42 68 -47 99 -8
55 71 -12 153 -88 108 -57 -34 -77 -113 -45 -180 54 -113 233 -174 422 -145
93 14 203 51 195 64 -3 6 -1 7 5 3 22 -13 154 64 256 148 39 33 176 219 176
240 0 3 13 27 30 54 28 46 31 47 70 44 22 -2 40 -6 40 -8 0 -3 -7 -20 -14 -39
-21 -50 -65 -104 -99 -121 -20 -11 -26 -19 -19 -26 31 -31 145 60 178 142 15
38 18 40 61 40 103 0 179 84 122 136 -46 42 -142 10 -188 -63 -22 -35 -28 -38
-63 -35 -21 2 -38 9 -38 15 0 16 95 170 155 252 63 85 153 172 218 209 l48 28
137 -22 c308 -52 574 -19 606 73 13 35 1 55 -47 80 -103 53 -363 39 -544 -30
-49 -18 -47 -18 -268 33 -144 33 -174 37 -295 37 -74 0 -154 -5 -177 -11 -40
-9 -43 -8 -74 24 -51 53 -119 77 -224 80 -49 2 -99 0 -110 -3z m1662 -151 c39
-14 48 -22 48 -42 0 -20 -9 -28 -50 -43 -43 -16 -67 -18 -165 -13 -99 5 -321
44 -336 59 -8 7 152 48 225 57 91 12 221 3 278 -18z m-1299 -48 c9 -26 12 -64
9 -114 -15 -241 -251 -531 -453 -556 -112 -14 -185 74 -164 201 34 208 297
448 555 508 32 7 38 3 53 -39z m487 -485 c24 -38 -36 -89 -105 -89 -36 0 -38
9 -5 48 13 16 21 33 17 37 -4 5 -2 5 5 1 6 -3 14 -2 18 4 8 13 62 13 70 -1z" />
  </g>
</svg>
